<?xml version="1.0" standalone="no"?>
<!DOCTYPE svg PUBLIC "-//W3C//DTD SVG 20010904//EN"
 "http://www.w3.org/TR/2001/REC-SVG-20010904/DTD/svg10.dtd">
<svg version="1.0" xmlns="http://www.w3.org/2000/svg"
 width="260.000000pt" height="260.000000pt" viewBox="0 0 260.000000 260.000000"
 preserveAspectRatio="xMidYMid meet">
<metadata>
Created by potrace 1.11, written by Peter Selinger 2001-2013
</metadata>
<g transform="translate(0.000000,260.000000) scale(0.100000,-0.100000)"
fill="#000000" stroke="none">
<path d="M880 2424 c-69 -41 -143 -83 -165 -95 -83 -43 -77 -23 -79 -266 l-1
-218 220 -128 c121 -70 227 -131 235 -135 8 -4 37 -20 63 -36 43 -26 46 -30
30 -41 -10 -6 -130 -76 -268 -154 -137 -79 -257 -151 -265 -160 -13 -15 -15
-78 -14 -446 l0 -428 170 -99 c212 -124 207 -122 243 -100 17 9 100 57 185
107 l156 90 1 125 c0 69 0 166 1 217 l0 91 76 45 c263 153 446 257 452 257 3
0 15 10 26 23 20 21 20 36 18 442 -2 231 -3 425 -3 431 -1 6 -72 52 -158 102
-87 49 -246 141 -353 202 -107 62 -209 121 -227 131 -17 10 -50 29 -72 43 -22
15 -43 26 -46 26 -3 0 -23 11 -45 25 -22 14 -43 25 -47 24 -5 0 -64 -34 -133
-75z"/>
</g>
</svg>
